<?xml version="1.0" encoding="UTF-8" standalone="no"?>
<svg
   height="128"
   width="128"
   version="1.1"
   id="svg26"
   sodipodi:docname="icon.svg"
   inkscape:version="1.2.2 (b0a8486541, 2022-12-01)"
   xmlns:inkscape="http://www.inkscape.org/namespaces/inkscape"
   xmlns:sodipodi="http://sodipodi.sourceforge.net/DTD/sodipodi-0.dtd"
   xmlns="http://www.w3.org/2000/svg"
   xmlns:svg="http://www.w3.org/2000/svg">
  <defs
     id="defs30" />
  <sodipodi:namedview
     id="namedview28"
     pagecolor="#ffffff"
     bordercolor="#111111"
     borderopacity="1"
     inkscape:showpageshadow="0"
     inkscape:pageopacity="0"
     inkscape:pagecheckerboard="1"
     inkscape:deskcolor="#d1d1d1"
     showgrid="false"
     inkscape:zoom="2.4223932"
     inkscape:cx="22.085597"
     inkscape:cy="81.737351"
     inkscape:window-width="1896"
     inkscape:window-height="1029"
     inkscape:window-x="12"
     inkscape:window-y="39"
     inkscape:window-maximized="1"
     inkscape:current-layer="svg26" />
  <path
     d="M 16,0 C 7.14,0 0,7.13 0,15.99 v 95.98 c 0,8.86 7.13,15.99 16,15.99 h 96 c 8.86,0 16,-7.13 16,-15.99 V 15.99 C 128,7.14 120.86,0 112,0 Z"
     fill="#363d52"
     id="path2" />
  <path
     d="M 16,0 C 7.14,0 0,7.13 0,15.99 v 95.98 c 0,8.86 7.13,15.99 16,15.99 h 96 c 8.86,0 16,-7.13 16,-15.99 V 15.99 C 128,7.14 120.86,0 112,0 Z m 0,4 h 96 c 6.64,0 12,5.35 12,11.99 v 95.98 c 0,6.64 -5.35,11.99 -12,11.99 H 16 c -6.64,0 -12,-5.35 -12,-11.99 V 15.99 C 4,9.35 9.36,4 16,4 Z"
     fill-opacity="0.4"
     id="path4"
     style="fill:#ffcc00;fill-opacity:1;stroke-width:10;stroke-dasharray:none;stroke:#ffcc00;stroke-opacity:0.31444892" />
  <path
     id="path10"
     style="stroke:#ffcc00;stroke-width:2;stroke-linecap:round;stroke-linejoin:round;stroke-dasharray:none;stroke-opacity:1;fill:#478cbf;fill-opacity:1"
     d="M 54.492188 19.923828 C 50.22201 20.873129 45.997422 22.194135 42.037109 24.1875 C 42.127679 27.684484 42.354201 31.035974 42.8125 34.439453 C 41.274498 35.424814 39.657234 36.270326 38.220703 37.423828 C 36.761111 38.54672 35.27086 39.620338 33.949219 40.933594 C 31.30887 39.187198 28.515651 37.546347 25.636719 36.097656 C 22.53346 39.437401 19.630083 43.042481 17.259766 47.076172 C 19.122584 50.000259 21.122261 52.938513 22.972656 55.230469 L 22.972656 65.263672 L 22.947266 65.261719 C 22.953566 66.728439 22.972656 86.336321 22.972656 86.65625 L 22.972656 87.988281 C 22.99037 87.988446 23.0077 87.989609 23.025391 87.990234 C 24.124002 101.49633 41.969585 107.999 63.972656 108.07617 L 64 108.07617 L 64.027344 108.07617 C 86.030415 107.99897 103.87051 101.49633 104.96875 87.990234 C 104.98636 87.989608 105.00376 87.988438 105.02148 87.988281 L 105.02148 86.65625 L 105.02148 86.011719 L 105.02734 86.009766 L 105.02734 82.072266 C 105.0328 76.675844 105.04356 66.41484 105.04883 65.261719 L 105.02734 65.263672 L 105.02734 55.230469 C 107.16449 52.540025 109.1878 49.573031 110.73828 47.076172 C 108.3688 43.042481 105.46654 39.437401 102.36328 36.097656 C 99.485184 37.546347 96.689176 39.187198 94.048828 40.933594 C 92.727605 39.620338 91.239032 38.54672 89.777344 37.423828 C 88.341232 36.270326 86.722566 35.424814 85.1875 34.439453 C 85.64454 31.035974 85.871902 27.684484 85.962891 24.1875 C 82.002158 22.194135 77.778134 20.873129 73.505859 19.923828 C 71.800136 22.7906 70.2394 25.894775 68.880859 28.929688 C 67.269899 28.660495 65.651854 28.560304 64.03125 28.541016 L 64.03125 28.539062 C 64.01993 28.539062 64.00965 28.541016 64 28.541016 C 63.98994 28.541016 63.97881 28.539063 63.96875 28.539062 L 63.96875 28.541016 C 62.34521 28.560306 60.728567 28.660495 59.117188 28.929688 C 57.759486 25.894775 56.200427 22.7906 54.492188 19.923828 z " />
  <path
     d="m 105.02174,79.987473 c 0,0 -0.13627,-0.83609 -0.21594,-0.828543 l -15.171224,1.463787 c -1.207174,0.116566 -2.144735,1.079286 -2.229434,2.288975 L 86.988354,88.885503 75.251223,89.722851 74.45287,84.30881 C 74.275086,83.104572 73.223474,82.196781 72.006237,82.196781 H 55.993892 c -1.216817,0 -2.268429,0.907791 -2.446214,2.112029 l -0.798772,5.414041 -11.737131,-0.837348 -0.416787,-5.973811 c -0.0847,-1.210108 -1.022261,-2.172828 -2.229435,-2.289394 L 23.186783,79.15893 c -0.07841,-0.0075 -0.135854,0.829382 -0.214264,0.829382 l -0.02055,3.283142 12.854993,2.073035 0.42098,6.027062 c 0.08512,1.220172 1.069643,2.206792 2.290653,2.294426 l 16.164552,1.153083 c 0.06122,0.0042 0.121598,0.0067 0.181977,0.0067 1.214721,0 2.264656,-0.90821 2.442441,-2.112448 l 0.821414,-5.570861 h 11.742582 l 0.821415,5.570861 c 0.177365,1.203819 1.228558,2.112029 2.444956,2.112029 0.05954,0 0.119082,-0.0021 0.177365,-0.0063 L 89.48195,93.665977 c 1.220591,-0.08763 2.205534,-1.074254 2.290652,-2.294426 l 0.420561,-6.027062 12.849547,-2.082259 z"
     fill="#ffffff"
     id="path8"
     style="stroke-width:4.16261" />
  <path
     d="m 51.631837,65.280697 c 0,5.05344 -4.094494,9.147096 -9.146257,9.147096 -5.049248,0 -9.145,-4.093656 -9.145,-9.147096 0,-5.050086 4.095752,-9.141645 9.145,-9.141645 5.051763,0 9.146257,4.091559 9.146257,9.141645"
     fill="#ffffff"
     id="path14"
     style="stroke-width:4.16261" />
  <path
     d="m 49.431073,65.823208 c 0,3.351909 -2.716664,6.068573 -6.071089,6.068573 -3.352747,0 -6.071089,-2.716664 -6.071089,-6.068573 0,-3.351909 2.718342,-6.071089 6.071089,-6.071089 3.354425,0 6.071089,2.71918 6.071089,6.071089"
     fill="#414042"
     id="path16"
     style="stroke-width:4.16261" />
  <path
     d="m 63.999414,75.259944 c -1.626057,0 -2.943927,-1.198368 -2.943927,-2.675573 v -8.420024 c 0,-1.475947 1.31787,-2.675573 2.943927,-2.675573 1.626057,0 2.946862,1.199626 2.946862,2.675573 v 8.420024 c 0,1.477205 -1.320805,2.675573 -2.946862,2.675573"
     fill="#ffffff"
     id="path18"
     style="stroke-width:4.16261" />
  <path
     d="m 76.368519,65.280697 c 0,5.05344 4.094494,9.147096 9.147096,9.147096 5.048828,0 9.144161,-4.093656 9.144161,-9.147096 0,-5.050086 -4.095333,-9.141645 -9.144161,-9.141645 -5.052602,0 -9.147096,4.091559 -9.147096,9.141645"
     fill="#ffffff"
     id="path20"
     style="stroke-width:4.16261" />
  <path
     d="m 78.569839,65.823208 c 0,3.351909 2.715826,6.068573 6.067734,6.068573 3.355263,0 6.071089,-2.716664 6.071089,-6.068573 0,-3.351909 -2.715826,-6.071089 -6.071089,-6.071089 -3.351908,0 -6.067734,2.71918 -6.067734,6.071089"
     fill="#414042"
     id="path22"
     style="stroke-width:4.16261" />
  <path
     d="M 16,0 C 7.14,0 0,7.13 0,15.99 v 95.98 c 0,8.86 7.13,15.99 16,15.99 h 96 c 8.86,0 16,-7.13 16,-15.99 V 15.99 C 128,7.14 120.86,0 112,0 Z m 0,4 h 96 c 6.64,0 12,5.35 12,11.99 v 95.98 c 0,6.64 -5.35,11.99 -12,11.99 H 16 c -6.64,0 -12,-5.35 -12,-11.99 V 15.99 C 4,9.35 9.36,4 16,4 Z"
     fill-opacity="0.4"
     id="path949"
     style="fill:#ffcc00;fill-opacity:1;stroke-width:20;stroke-dasharray:none;stroke:#ffcc00;stroke-opacity:0.31444892" />
</svg>
